<svg id="Layer_1" width="55" height="60" data-name="Layer 1" xmlns="http://www.w3.org/2000/svg" viewBox="0 0 232 229"><defs><style>.cls-1{fill:#fff;}</style></defs><title>alert-bubbleArtboard 1</title><path class="cls-1" d="M117.22,6.07q39.72,0,79.45,0c11.76,0,20.51,5.38,25.61,15.9a27.66,27.66,0,0,1,2.51,11.57q.26,60.45,0,120.91c0,11.18-5.68,19.4-15.64,24.2a27,27,0,0,1-11.07,2.25c-18.32.23-36.64.19-55,.06a15.57,15.57,0,0,0-10.11,3.33C118.1,195.72,103,207,88,218.23a35,35,0,0,1-3.29,2.27c-4.12,2.4-7.26.83-7.66-3.86-.14-1.66-.07-3.33-.07-5,0-8.67,0-17.33,0-26,0-4.29-.29-4.57-4.54-4.59-12-.07-24-.5-36,.08C22.52,181.82,8.94,169.38,9,153.5Q9.28,93.8,9,34.08A27.81,27.81,0,0,1,37.28,6C63.93,6.16,90.58,6.07,117.22,6.07Zm-.69,101.05c1.16,0,2.32,0,3.48,0,4.82-.19,7.14-2,7.86-6.64.56-3.6.81-7.25,1.17-10.88.87-8.74,1.76-17.49,2.59-26.23.51-5.45,1.17-10.9,1.32-16.36.12-4.4-2.11-6.92-6-7-6.64-.2-13.3-.16-19.94,0a5.72,5.72,0,0,0-5.81,5.14,20.37,20.37,0,0,0-.11,5.46c1.56,15.68,3.19,31.34,4.8,47C106.69,105.71,108.25,107.11,116.53,107.12Zm14,27.49c.31-7-5.46-13.12-12.35-13.79-8.44-.82-14.54,6.34-14.74,12.93a13.55,13.55,0,1,0,27.09.86Z"/></svg>
