<svg xmlns="http://www.w3.org/2000/svg" width="62" height="49">
    <path fill="#FFF" fill-rule="evenodd" d="M60.551 12.871c-1.37-.018-1.931.718-2.378 1.783-.151.359-.392.681-.574.99 1.414 2.58.732 2.58-1.237 3.887a4.684 4.684 0 0 1-1.084.514c-.773.26-1.5.224-1.924-.598-.519-1.005-1.414-.997-2.359-.999-.895-.002-1.699.011-2.127 1.022-.327.775-1.046.82-1.761.617a4.016 4.016 0 0 1-1.093-.492c-2.052-1.344-2.797-1.302-1.329-4.02-.347-.587-.66-1.27-1.12-1.834-.284-.349-.778-.548-1.207-.754-.189-.091-.456-.004-.679-.044-.925-.169-1.353-.724-1.359-2.058-.007-1.2-.379-2.57 1.072-3.324 1.972.434 2.303-1.244 3.065-2.366.064-.094.105-.202.214-.416-.072-.223-.108-.391-.177-.544-.834-1.819-.71-2.23 1.006-3.265.245-.147.505-.27.761-.398 1.653-.829 1.727-.814 2.855.576 1.003 1.237 3.037 1.197 4.076-.079C54.2-.168 54.383-.214 55.781.459c1.039.499 2.04 1.048 2.666 2.21l-.873 2.055c.282.504.638 1.023.877 1.591.351.836.87 1.303 1.832 1.2.27-.029.622.003.825.155 1.161.869.877 2.149.804 3.313-.053.854-.286 1.902-1.361 1.888zM51.05 6.596c-1.692-.028-3.434 1.646-3.514 3.378-.093 2.001 1.438 3.634 3.468 3.702 1.924.064 3.672-1.589 3.721-3.517.048-1.88-1.652-3.529-3.675-3.563zM39.814 20.16c-2.043.699-2.6 1.906-2.309 3.864.124.838.042 1.713 0 2.568-.039.783.249 1.307.981 1.623.578.249 1.134.55 1.691.845 1.408.747 1.814 1.578 1.306 3.087a10.772 10.772 0 0 1-1.294 2.591 33.62 33.62 0 0 1-2.725 3.508c-.88.984-1.896 1.238-2.913.446-1.926-1.498-3.559-1.356-5.23.295-.271.268-.687.461-1.067.536-1.579.313-1.987 1.32-1.772 2.76.042.28.016.572 0 .857-.094 1.699-.979 2.689-2.665 2.752a82.233 82.233 0 0 1-6.021-.004c-1.546-.055-2.442-.853-2.273-2.402.259-2.367-.566-3.768-2.831-4.495-.736-.236-1.352-.845-2.02-1.288-.531-.352-1.029-.371-1.595-.014-.677.425-1.389.809-2.124 1.124-.891.382-1.885.492-2.524-.362-1.364-1.824-2.773-3.647-3.868-5.631-1.08-1.955-.582-2.971 1.408-3.999.806-.417 1.606-.847 2.335-1.232 0-1.905.047-3.662-.034-5.413-.019-.415-.377-.927-.733-1.187-.592-.434-1.32-.681-1.97-1.043-1.452-.81-1.833-1.742-1.244-3.269.897-2.327 2.471-4.235 4.07-6.096.632-.735 1.589-.872 2.54-.459.157.069.34.115.461.226 1.808 1.639 3.465 1.2 5.115-.286.411-.37.98-.615 1.518-.788 1.205-.388 1.577-1.213 1.441-2.378-.02-.17-.003-.343-.002-.515.015-2.49.626-3.239 3.076-3.307 1.937-.053 3.897.008 5.818.247 1.527.19 2.249.968 2.071 2.427-.286 2.337.603 3.652 2.783 4.313.475.144.934.471 1.3.818.922.875 1.805.734 2.783.105 2.995-1.926 3.643-1.226 5.432 1.277.926 1.296 1.79 2.656 2.511 4.073.923 1.813.512 3.164-1.426 3.826zm-18.858-2.709c-4.736.318-6.884 2.875-7.135 7.017-.224 3.677 3.315 7.186 7.009 7.02 4.213-.189 7.048-2.559 7.064-6.977.405-3.861-3.901-7.263-6.938-7.06zm20.732 18.917c1.301.163 1.869-.558 2.307-1.582.178-.413.449-.786.689-1.195-.087-.232-.155-.448-.248-.652-.758-1.647-.647-2.05.891-3.039.336-.216.702-.389 1.063-.566 1.53-.75 1.615-.729 2.714.626 1.018 1.255 3.042 1.23 4.08-.049 1.043-1.286 1.183-1.31 2.736-.553.989.483 1.918 1.031 2.526 2.131l-.868 2.067c.276.494.631 1.014.87 1.583.352.834.867 1.31 1.831 1.205.271-.029.624.003.827.155 1.163.869.879 2.151.806 3.317-.053.856-.291 1.904-1.367 1.885-1.381-.024-1.925.736-2.377 1.793-.153.36-.393.683-.552.953.01.155.006.213.018.268.176.79 1.193 1.532.437 2.357-.929 1.013-2.099 1.825-3.542 1.89-.396.018-.895-.413-1.209-.761-1.179-1.306-3.394-1.349-4.374.045-.531.755-1.147.893-1.925.64a5.257 5.257 0 0 1-1.24-.587c-2.181-1.425-2.358-1.474-1.103-3.826-.256-.425-.498-.751-.663-1.112-.452-.987-.966-1.769-2.291-1.608-.837.102-1.249-.614-1.32-1.315a13.463 13.463 0 0 1 .036-2.894c.075-.644.491-1.27 1.248-1.176zm9.432 6.139c1.892.011 3.615-1.705 3.609-3.594-.007-1.936-1.492-3.311-3.569-3.303-1.991.007-3.666 1.64-3.608 3.517.059 1.915 1.594 3.369 3.568 3.38z"/>
</svg>
