<svg xmlns="http://www.w3.org/2000/svg" width="57" height="45">
    <path fill="#FFF" fill-rule="evenodd" d="M53.586 16.817c-3.432.039-6.865.039-10.296 0-2.315-.027-3.332-1.084-3.372-3.412-.028-1.666-.005-3.334-.005-5.001 0-1.668-.022-3.335.005-5.002.037-2.32 1.058-3.375 3.379-3.402 3.432-.039 6.864-.039 10.296 0 2.31.026 3.353 1.091 3.375 3.41.032 3.335.032 6.67 0 10.004-.022 2.315-1.069 3.377-3.382 3.403zM33.839 44.949c-3.589.057-7.181.061-10.77-.003-2.036-.036-3.051-1.126-3.107-3.185-.048-1.77-.01-3.543-.011-5.314-.001-1.668-.029-3.336.006-5.002.046-2.211 1.083-3.273 3.318-3.301 3.485-.043 6.97-.045 10.455.002 2.154.029 3.236 1.081 3.266 3.192.051 3.49.052 6.982-.001 10.472-.032 2.03-1.106 3.106-3.156 3.139zM19.227 11.201h-2c-.325 2.385-.289 4.356.944 6.269 1.579 2.449 2.936 5.038 4.292 7.398l-4.804 2.601c-.311-.487-.768-1.149-1.171-1.843-1.443-2.484-2.901-4.961-4.281-7.479-.513-.938-1.141-1.371-2.247-1.337-2.163.067-4.329.04-6.494.012-2.42-.031-3.454-1.054-3.474-3.465-.026-3.334-.031-6.669.002-10.003C.017 1.058 1.077.02 3.415-.002c3.379-.032 6.759-.031 10.137-.001 2.421.021 3.439 1.058 3.496 3.457.014.614.002 1.23.002 2.085 3.411.159 6.662.055 9.907.073 3.261.019 6.522.005 9.918.005v5.449c-.596.044-1.202.128-1.809.129-5.28.01-10.56.006-15.839.006z"/>
</svg>
