<svg xmlns="http://www.w3.org/2000/svg" width="52" height="53">
    <path fill="#FFF" fill-rule="evenodd" d="M49.479 32.322c-.687.175-1.424.175-2.14.198-1.201.037-2.405.023-3.607.049-.166.004-.329.112-.561.196-.055.208-.173.434-.164.655.077 2.07-.19 4.083-.953 6.016-.314.794-.031 1.378.536 1.934 1.418 1.391 2.811 2.808 4.213 4.214.34.341.696.669 1.013 1.03 1.245 1.421 1.242 3.1.007 4.372-1.248 1.287-3.153 1.377-4.528.101-1.455-1.35-2.819-2.798-4.229-4.197-.421-.417-.863-.812-1.262-1.186-6.815 3.25-6.815 3.25-9.172 2.865-.035-.652-.104-1.35-.105-2.047-.008-6.868-.005-13.735-.005-20.602 0-.421.004-.843-.006-1.265-.006-.24-.003-.489-.067-.717-.281-1.011-1.01-1.284-3.059-1.173-1.275.068-1.747.418-1.884 1.478-.061.475-.028.963-.028 1.444l-.001 20.782v2.148c-3.602.48-6.305-1.385-9.281-2.987l-3.401 3.395c-.682.68-1.336 1.391-2.052 2.034-1.418 1.272-3.269 1.238-4.532-.041-1.297-1.312-1.305-3.06.067-4.496A130.584 130.584 0 0 1 9.13 41.67c.854-.804 1.127-1.575.673-2.709a11.05 11.05 0 0 1-.791-4.771c.026-.462-.081-.932-.153-1.663-1.638 0-3.076.023-4.513-.011-.653-.015-1.328-.059-1.951-.237-1.63-.465-2.554-1.831-2.371-3.368.175-1.477 1.474-2.766 3.032-2.864 1.318-.082 2.645-.015 3.968-.034.585-.009 1.169-.066 1.951-.113 0-1.92.06-3.709-.041-5.489-.026-.452-.511-.926-.874-1.304-1.249-1.303-2.58-2.53-3.803-3.857-1.876-2.036-.972-4.842 1.715-5.383 1.148-.231 2.118.206 2.93 1.017 1.406 1.403 2.843 2.777 4.2 4.226.752.803 1.551 1.172 2.679 1.165a1574.68 1574.68 0 0 1 20.389-.002c1.116.007 1.934-.314 2.694-1.129a97.62 97.62 0 0 1 4.336-4.345c1.497-1.413 3.53-1.298 4.778.186 1.091 1.297 1.048 2.901-.201 4.233a71.827 71.827 0 0 1-3.701 3.704c-.822.757-1.18 1.585-1.117 2.703.077 1.365.018 2.738.018 4.278.971.045 1.731.097 2.492.11 1.142.02 2.289-.045 3.427.029 1.643.106 2.972 1.446 3.088 3.001.115 1.542-.844 2.858-2.505 3.279zM26.179 11.2c-3.707.042-7.414.009-11.059.009C14.042 6.348 18.899.875 25.029.079c5.338-.693 11.882 3.077 12.377 10.97-3.737.337-7.488.109-11.227.151z"/>
</svg>
