<svg xmlns="http://www.w3.org/2000/svg" width="20" height="20">
    <path fill="#004071" fill-rule="evenodd" d="M20.001 17.521c.013 1.465-.957 2.516-2.506 2.479-2.505-.06-5.012-.016-7.519-.016-2.506 0-5.013-.038-7.518.015-1.481.031-2.47-.992-2.459-2.445C.037 12.515.037 7.476 0 2.438-.011.993.976-.013 2.464-.001c5.013.04 10.026.043 15.038-.001 1.526-.014 2.512.996 2.499 2.487a897.164 897.164 0 0 0 0 15.036zM17.652 2.343c-.68-.16-14.653-.156-15.31.004-.159.68-.155 14.653.005 15.309.68.16 14.653.156 15.309-.004.16-.68.156-14.653-.004-15.309zM14.05 8.562a89.028 89.028 0 0 1-2.677-2.681c.404-.721.937-1.176 1.565-1.515.331-.179.701-.078.961.156.546.492 1.085 1.001 1.562 1.559.388.452.334.906-.103 1.33-.406.393-.726.895-1.308 1.151zm-.982-.007c.161.164.298.351.489.579-.199.233-.352.439-.532.619-1.729 1.735-3.468 3.459-5.188 5.201-.396.402-.828.608-1.397.603-.389-.003-.778.11-1.169.138-.753.054-1.024-.216-.969-.969.04-.549.099-1.097.178-1.641.057-.396.227-.735.527-1.031 1.723-1.703 3.428-3.424 5.145-5.132.565-.562.718-.556 1.297.012.544.535 1.084 1.076 1.619 1.621z"/>
</svg>
