<svg xmlns="http://www.w3.org/2000/svg" width="19" height="26">
    <path fill="#004071" fill-rule="evenodd" d="M18.991 23.374c-.002 1.529-1.052 2.613-2.536 2.616-4.63.01-9.259.01-13.889 0-1.531-.003-2.555-1.084-2.558-2.685C0 19.878.005 16.45.005 13.022c0-3.367-.001-6.735.001-10.103C.007 1.007.959.011 2.789.009c3.077-.003 6.153.012 9.23-.008.964-.007 1.752.287 2.431 1.016a144.628 144.628 0 0 0 3.665 3.765c.607.606.882 1.32.881 2.175-.003 5.472.004 10.945-.005 16.417zM12.674 2.866c-.005 1.208-.048 2.385.03 3.641 1.025 0 1.925.003 2.824-.003.224-.001.448-.03.697-.048-.487-.787-2.929-3.263-3.551-3.59zm3.968 6.053c-.435-.025-.749-.058-1.064-.06-1.259-.006-2.519.004-3.779-.004-1.122-.007-1.418-.304-1.425-1.432-.008-1.323.003-2.646-.006-3.968-.002-.318-.053-.636-.078-.918-.872-.253-7.144-.238-7.916.018-.024.226-.075.487-.075.747-.004 6.463-.005 12.927.001 19.39.001.285.071.569.104.817.957.201 13.444.175 14.301-.058v-4.859c0-1.593.011-3.187-.003-4.78-.015-1.607.064-3.219-.06-4.893zm-2.935 9.288c-.713-.12-1.413-.363-2.094-.622-.371-.141-.694-.246-1.091-.111-.831.281-1.684.5-2.51.797-.216.077-.384.333-.543.533-.405.511-.77 1.057-1.196 1.547-.207.239-.498.419-.781.565-.583.301-.89.229-1.238-.221-.291-.377-.321-.941.032-1.321.419-.453.868-.91 1.385-1.225.634-.386 1.111-.849 1.385-1.553.162-.418.373-.816.579-1.214.465-.898.703-1.793.373-2.83-.166-.522-.099-1.131-.087-1.699.013-.606.428-1.034.969-1.076a1.032 1.032 0 0 1 1.091.955c.049.651-.007 1.315-.071 1.968-.046.468-.262.911.024 1.389.385.643.721 1.357 1.432 1.649.442.181.969.144 1.458.205l.007-.029c.38 0 .767-.046 1.139.01.732.11 1.063.594.979 1.336-.073.649-.532 1.067-1.242.947zm-4.694-3.396l-1.072 2.37.138.162 2.244-.841-1.31-1.691z"/>
</svg>
