<svg xmlns="http://www.w3.org/2000/svg" width="16" height="17">
    <path fill="#6C6" fill-rule="evenodd" d="M16.001 14.893c.01 1.245-.766 2.139-2.005 2.108-2.004-.051-4.01-.014-6.015-.014s-4.01-.032-6.015.012C.782 17.026-.009 16.156 0 14.921c.03-4.283.029-8.566 0-12.848C-.009.844.781-.011 1.972-.001c4.009.035 8.02.037 12.03-.001 1.221-.011 2.009.847 1.999 2.114-.034 4.26-.034 8.521 0 12.781zM14.122 1.992c-.544-.136-11.723-.133-12.248.003-.128.579-.125 12.455.003 13.013.545.136 11.723.133 12.248-.004.128-.578.125-12.454-.003-13.012zM11.24 7.278A73.835 73.835 0 0 1 9.099 5c.323-.614.749-1 1.251-1.289.266-.152.562-.066.77.133.436.419.868.851 1.249 1.325.31.385.268.77-.082 1.13-.325.335-.581.762-1.047.979zm-.786-.006c.129.139.239.298.392.492-.159.198-.282.373-.426.526-1.383 1.475-2.774 2.94-4.15 4.422-.317.341-.663.516-1.118.512-.311-.003-.622.094-.935.118-.602.045-.819-.184-.775-.825.032-.466.079-.932.142-1.394.046-.337.182-.625.421-.877 1.379-1.447 2.743-2.91 4.117-4.362.452-.478.574-.473 1.037.01.436.455.868.915 1.295 1.378z"/>
</svg>
