<svg xmlns="http://www.w3.org/2000/svg" width="54" height="54">
    <path fill="#FFF" fill-rule="evenodd" d="M53.933 50.129c-.024 2.519-1.324 3.807-3.858 3.831-5.245.051-10.491.047-15.736.004-2.719-.022-3.937-1.316-3.971-4.103-.033-2.622-.007-5.246-.008-7.869 0-2.56-.015-5.121.004-7.681.02-2.514 1.25-3.874 3.76-3.903 5.37-.063 10.741-.064 16.111.002 2.404.029 3.672 1.35 3.697 3.795.054 5.307.053 10.616.001 15.924zM51.787 23.33c-.557.223-1.213.267-1.825.272-3.183.026-6.366.012-9.549.012s-6.367.046-9.549-.032c-.826-.02-1.762-.248-2.44-.695-1.615-1.064-1.824-2.684-.732-4.614 1.167-2.062 2.377-4.1 3.583-6.139 1.903-3.22 3.815-6.435 5.736-9.645.254-.424.542-.842.882-1.199 1.736-1.822 3.957-1.712 5.407.359.999 1.427 1.836 2.968 2.729 4.468 2.393 4.018 4.795 8.03 7.157 12.065 1.242 2.122.635 4.337-1.399 5.148zM13.476 53.942C6.213 53.952.067 48.216-.001 40.311c.144-7.309 6.064-13.273 13.465-13.265 7.09.007 13.417 5.334 13.439 13.643.019 7.558-6.122 13.244-13.427 13.253z"/>
</svg>
