<?xml version="1.0" encoding="windows-1252" standalone="no"?>
<svg width="144px" height="32px" viewBox="0 0 144 32" version="1.1" xmlns="http://www.w3.org/2000/svg" xmlns:xlink="http://www.w3.org/1999/xlink" xmlns:sketch="http://www.bohemiancoding.com/sketch/ns"><link xmlns="" type="text/css" id="dark-mode" rel="stylesheet" href=""/><style xmlns="" type="text/css" id="dark-mode-custom-style"/>        <title>Logo</title>    <desc>Created with Sketch.</desc>    <defs/>    <g id="Page-1" stroke="none" stroke-width="1" fill="none" fill-rule="evenodd" sketch:type="MSPage">        <g id="M-•-L1" sketch:type="MSArtboardGroup" transform="translate(-624.000000, -24.000000)" fill="#FFFFFF">            <g id="Top-nav" sketch:type="MSLayerGroup">                <g id="Logo" transform="translate(624.000000, 24.000000)" sketch:type="MSShapeGroup">                    <path d="M27.8229057,15.619815 L28.2644939,17.8001549 L40.5252238,17.8001549 C39.9753041,21.4382437 29.8389718,31.7807206 27.2619692,17.8001549 L26.820381,15.619815 C26.4173514,14.0723033 25.2394767,1.9507265 17.9665825,0.531575664 C17.8151021,0.502851549 17.6608676,0.476820319 17.5011246,0.457970118 C17.4745008,0.454379604 17.3927932,0.448096203 17.4276796,0.454379604 L17.4644021,0.460663004 C22.4632545,1.2353165 23.3400046,8.38851891 23.7935277,15.619815 C23.8394308,16.3486894 23.8816617,17.074871 23.9202203,17.8001549 C24.3214138,24.8519253 24.674868,31.3669138 28.4894193,31.3669138 C35.2133119,31.3669138 41.9408768,22.539634 43.1793436,15.619815 L27.8229057,15.619815 Z M134.732706,0.669630945 L134.732706,2.63184709 L138.08639,2.63184709 L138.08639,11.1045636 L140.649621,11.1045636 L140.649621,2.63184709 L143.999633,2.63184709 L143.999633,0.669630945 L134.732706,0.669630945 Z M101.912325,8.09346838 C101.912325,4.77314015 96.7491393,4.77314015 96.7491393,3.38630394 C96.7491393,2.94287541 97.0833142,2.60177653 98.1537755,2.60177653 C99.2398439,2.60177653 99.8916686,2.81182163 100.673858,3.03263827 L101.413817,1.2894435 C100.58297,0.935777829 99.7686482,0.582112155 98.0757402,0.582112155 C96.1909571,0.582112155 94.2446638,1.39267079 94.2446638,3.39887074 C94.2446638,6.94360613 99.3160431,6.48491791 99.3160431,8.18053836 C99.3160431,8.81605942 98.7266468,9.20114209 97.4441129,9.20114209 C96.2680744,9.20114209 95.5731008,9.05303337 94.6219876,8.72898944 L93.8967179,10.5278372 C94.6981868,10.9578013 95.7218269,11.2656879 97.4725729,11.2656879 C99.6759238,11.2656879 101.912325,10.3788308 101.912325,8.09346838 Z M89.8727565,0.676093871 L89.8727565,6.66776486 L89.9489557,7.8328868 L85.7543264,0.676093871 L82.7788846,0.676093871 L82.7788846,11.1110265 L85.3467064,11.1110265 L85.3467064,5.51880024 L85.2842782,4.1310664 L89.3751664,11.1110265 L92.4396603,11.1110265 L92.4396603,0.676093871 L89.8727565,0.676093871 Z M49.6472802,0.676093871 L49.6472802,2.63831002 L52.9991278,2.63831002 L52.9991278,11.1110265 L55.5651136,11.1110265 L55.5651136,2.63831002 L58.9151251,2.63831002 L58.9151251,0.676093871 L49.6472802,0.676093871 Z M74.6977278,0.676093871 L70.5939867,11.1110265 L73.1581363,11.1110265 L74.321322,8.04203426 L77.927473,8.04203426 L78.9400964,11.1110265 L81.5969704,11.1110265 L78.0036723,0.676093871 L74.6977278,0.676093871 Z M75.6653661,4.18851463 L76.2538444,2.22719611 L76.7505164,4.18851463 L77.3261418,6.22433632 L75.0006885,6.22433632 L75.6653661,4.18851463 Z M118.313243,0.509045186 C114.678632,0.509045186 112.443149,2.33930993 112.443149,5.86519512 C112.443149,9.21424747 114.284783,11.2814862 118.027725,11.2814862 C121.83126,11.2814862 123.871196,9.36145856 123.871196,5.89391923 C123.871196,2.63193685 122.195731,0.509045186 118.313243,0.509045186 M118.023135,9.30401033 C115.849162,9.30401033 114.988937,7.75290809 114.988937,5.8490378 C114.988937,3.93170309 115.864769,2.48382813 118.128712,2.48382813 C120.28616,2.48382813 121.208813,3.93170309 121.208813,5.88135243 C121.208813,7.82651364 120.377966,9.30401033 118.023135,9.30401033 M107.371953,0.669720708 L103.221391,0.669720708 L103.221391,11.105551 L105.802066,11.105551 L105.802066,8.15145519 L106.587009,8.15145519 C109.772688,8.15145519 111.493137,6.42711063 111.493137,4.37513162 C111.493137,2.04399011 109.772688,0.669720708 107.371953,0.669720708 M106.678816,6.21796316 L105.802066,6.21796316 L105.802066,2.63193685 L107.040532,2.63193685 C108.413036,2.63193685 108.850034,3.38594489 108.850034,4.43257985 C108.850034,5.40560927 108.278999,6.21796316 106.678816,6.21796316 M132.923296,8.04858695 L131.836309,6.89962233 C132.98297,6.26320364 133.556759,5.2452928 133.556759,4.07927323 C133.556759,1.74902935 131.836309,0.670079759 129.436493,0.670079759 L125.283176,0.670079759 L125.283176,11.1050124 L127.864769,11.1050124 L127.864769,7.50282876 L128.650631,7.50282876 C128.847097,7.50282876 129.04448,7.50282876 129.226257,7.48667144 L130.434427,8.86094085 C131.550792,10.1292901 132.680927,11.1920824 134.766766,11.294412 L135.336883,9.37797493 C134.174616,9.08265512 133.510856,8.6679507 132.923296,8.04858695 M128.458756,5.74527193 L127.582006,5.74527193 L127.582006,2.64665796 L128.819555,2.64665796 C130.192977,2.64665796 130.632729,3.09098413 130.632729,4.13761909 C130.632729,5.12680582 129.983658,5.74527193 128.458756,5.74527193 M67.6545329,8.05496012 L66.5666284,6.90599549 C67.714207,6.26957681 68.2879963,5.25166596 68.2879963,4.08564639 C68.2879963,1.75540251 66.5666284,0.676452922 64.165894,0.676452922 L60.0153317,0.676452922 L60.0153317,11.1113855 L62.5969245,11.1113855 L62.5969245,7.50920192 L63.3809502,7.50920192 C63.5783337,7.50920192 63.7757172,7.50920192 63.9556576,7.49304461 L65.1638283,8.86731401 C66.2811109,10.1356632 67.4112463,11.1984555 69.4970852,11.3007852 L70.0681203,9.38434809 C68.9058527,9.08902828 68.2411751,8.67432386 67.6545329,8.05496012 M63.4736745,5.7516451 L62.5969245,5.7516451 L62.5969245,2.65392876 L63.8344733,2.65392876 C65.2060592,2.65392876 65.6476475,3.09735729 65.6476475,4.14399225 C65.6476475,5.13317898 64.9976589,5.7516451 63.4736745,5.7516451 Z M54.9278862,27.297694 L53.8207023,30.9528377 L52.5849897,27.297694 L51.9533624,27.297694 L52.2994721,28.2904712 L51.2207482,30.9636092 L50.3017673,27.297694 L49.6683039,27.297694 L50.7406013,31.3477943 L51.6127611,31.3477943 L52.5565297,28.9708737 L53.3837044,31.3477943 L54.2430112,31.3477943 L55.5374799,27.297694 L54.9278862,27.297694 Z M57.0373193,27.297694 L55.4095938,31.3477943 L56.0421391,31.3477943 L56.6030755,29.9331316 L58.1747992,29.9331316 L58.6788157,31.3477943 L59.3389029,31.3477943 L57.8764287,27.297694 L57.0373193,27.297694 Z M57.4357585,27.7097055 L58.0086298,29.4573884 L56.78577,29.4573884 L57.4357585,27.7097055 Z M62.262566,27.297694 L60.6688088,29.1306516 L60.6688088,29.2284931 L62.3562084,31.3477943 L63.1714482,31.3477943 L61.3601102,29.1782259 L63.065871,27.297694 L62.262566,27.297694 Z M59.9499656,31.3477943 L60.5760845,31.3477943 L60.5760845,27.297694 L59.9499656,27.297694 L59.9499656,31.3477943 Z M64.9057608,27.297694 L63.2761992,31.3477943 L63.9096626,31.3477943 L64.4715171,29.9331316 L66.0423227,29.9331316 L66.5445031,31.3477943 L67.2055084,31.3477943 L65.7421161,27.297694 L64.9057608,27.297694 Z M65.3042001,27.7097055 L65.8779894,29.4573884 L64.6532936,29.4573884 L65.3042001,27.7097055 Z M71.7116364,27.297694 L70.1187973,29.1306516 L70.1187973,29.2284931 L71.8052789,31.3477943 L72.6196006,31.3477943 L70.8119348,29.1782259 L72.5131053,27.297694 L71.7116364,27.297694 Z M69.3971999,31.3477943 L70.0251549,31.3477943 L70.0251549,27.297694 L69.3971999,27.297694 L69.3971999,31.3477943 Z M76.2795501,29.3207693 C76.2795501,28.4213455 75.7773697,27.7400454 74.8106495,27.7400454 C73.8044526,27.7400454 73.3224696,28.4213455 73.3224696,29.3091002 C73.3224696,30.1735165 73.7860913,30.9113672 74.7702548,30.9113672 C75.8177645,30.9113672 76.2795501,30.2192956 76.2795501,29.3207693 M72.6908423,29.3153836 C72.6908423,28.0452391 73.5510672,27.2427591 74.8638972,27.2427591 C76.2455818,27.2427591 76.91944,28.1358996 76.91944,29.3270527 C76.91944,30.5792447 76.1234795,31.4167321 74.7528116,31.4167321 C73.4179481,31.4167321 72.6908423,30.5684731 72.6908423,29.3153836 Z M77.013725,27.297694 L77.013725,27.8030589 L78.3954097,27.8030589 L78.3954097,31.3477943 L79.0242828,31.3477943 L79.0242828,27.8030589 L80.4050493,27.8030589 L80.4050493,27.297694 L77.013725,27.297694 Z M81.7762681,27.297694 L80.1485426,31.3477943 L80.7801698,31.3477943 L81.3438605,29.9331316 L82.913748,29.9331316 L83.4168465,31.3477943 L84.0796879,31.3477943 L82.6144595,27.297694 L81.7762681,27.297694 Z M82.1756254,27.7097055 L82.7494147,29.4573884 L81.5247188,29.4573884 L82.1756254,27.7097055 Z M87.5600643,27.297694 L87.5600643,29.0705105 L85.4319945,29.0705105 L85.4319945,27.297694 L84.8058756,27.297694 L84.8058756,31.3477943 L85.4319945,31.3477943 L85.4319945,29.562411 L87.5600643,29.562411 L87.5600643,31.3477943 L88.1861832,31.3477943 L88.1861832,27.297694 L87.5600643,27.297694 Z M89.3927014,27.297694 L89.3927014,29.1647615 L89.3927014,31.3477943 L90.0206564,31.3477943 L90.0206564,29.1710449 L90.0206564,27.297694 L89.3927014,27.297694 Z M107.963002,13.9886443 L106.23888,13.9886443 L103.423181,19.2424646 L100.805784,13.9886443 L99.0109709,13.9886443 L102.585908,20.5170972 L102.585908,24.3347117 L104.159468,24.3347117 L104.159468,20.4874755 L107.963002,13.9886443 Z M98.7080101,24.0592295 L98.3040624,22.8420451 C97.8542116,22.9730988 97.2436998,23.1508293 95.8803764,23.1508293 C93.5292174,23.1508293 91.6591232,21.8465749 91.6591232,19.0818788 C91.6591232,16.3010254 93.4557723,15.1870683 95.582006,15.1870683 C97.0922194,15.2023279 97.6761074,15.4213493 98.2453064,15.5838201 L98.6795501,14.3971551 C98.3040624,14.2364796 97.377737,13.8702471 95.5480376,13.8702471 C91.9868717,13.8702471 90.0414964,15.876447 90.0414964,19.2299875 C90.0414964,22.3312944 92.0180858,24.4829102 95.611384,24.4829102 C97.3309158,24.4829102 98.2287813,24.2190074 98.7080101,24.0592295 Z M88.3852192,24.3343526 L88.3852192,13.9882852 L86.8116594,13.9882852 L86.8116594,21.5247751 L86.9475327,22.9439259 L81.8587101,13.9882852 L79.6865733,13.9882852 L79.6865733,24.3343526 L81.2592151,24.3343526 L81.2592151,16.8849328 L81.170163,15.6264575 L86.1240303,24.3343526 L88.3852192,24.3343526 Z M77.4756943,24.3502407 L77.4756943,23.0917653 L72.5071379,23.0917653 L72.5071379,19.7391225 L76.8027542,19.7391225 L76.8027542,18.538993 L72.5071379,18.538993 L72.5071379,15.2186648 L77.1323388,15.2186648 L77.1323388,13.9889136 L70.9363323,13.9889136 L70.9363323,24.3340833 L77.4756943,24.3502407 Z M69.0177645,24.0011529 L69.0177645,19.9905483 L67.4322699,19.9905483 L67.4322699,23.0478713 C67.1008492,23.1053195 66.6528345,23.150201 66.0092724,23.150201 C63.7187055,23.150201 61.8027083,21.8791589 61.8027083,19.0821481 C61.8027083,16.2564132 63.6140464,15.1864399 65.74028,15.1864399 C67.2211154,15.1864399 67.8206105,15.4216186 68.3898095,15.5840894 L68.8240532,14.3965267 C68.4347946,14.2367488 67.5369291,13.8705164 65.7237549,13.8705164 C62.1625889,13.8705164 60.1859995,15.8309373 60.1859995,19.2293592 C60.1859995,22.3728546 62.2525591,24.4831795 65.74028,24.4831795 C67.1329814,24.4831795 68.0299289,24.3216063 69.0177645,24.0011529 M56.0689465,13.9886443 L53.7930686,13.9886443 L49.6470966,24.3347117 L51.2188203,24.3347117 L52.6546706,20.6768751 L56.7859536,20.6768751 L58.0583888,24.3347117 L59.7063117,24.3347117 L56.0689465,13.9886443 Z M53.1201285,19.5054697 L54.2135414,16.6375463 L54.8552674,14.9105089 L55.4106954,16.6375463 L56.382924,19.5054697 L53.1201285,19.5054697 Z" id="BLUE"/>                    <path d="M38.7035116,0.671246676 L38.7035116,9.31451259 L38.7411522,10.4500128 L33.1051641,0.695482649 L33.0904751,0.671246676 L31.5600643,0.671246676 L31.5600643,11.1169508 L32.5433096,11.1169508 L32.5433096,2.25466355 L32.4946523,1.48360057 L37.9901767,11.0918172 L38.0048657,11.1169508 L39.7152169,11.1169508 L39.7152169,0.671246676 L38.7035116,0.671246676 Z M41.354969,0.671246676 L41.354969,1.528482 L46.7026853,1.528482 L40.9730549,10.1663621 L40.9657104,10.1780313 L40.9657104,11.1169508 L48.0862061,11.1169508 L48.0862061,10.2615108 L41.9884324,10.2615108 L47.763966,1.52309623 L47.7722286,1.51142706 L47.7722286,0.671246676 L41.354969,0.671246676 Z M26.9126463,31.3500383 C23.4056461,30.981113 23.0622906,24.6420597 22.6757861,17.7994368 C22.6335552,17.0741529 22.5949966,16.348869 22.5481754,15.6199945 C22.0652743,7.96142722 21.112325,0.386339355 15.2899702,0.386339355 C4.02717466,0.386339355 -0.000367225155,17.7994368 -0.000367225155,17.7994368 L18.3865963,17.7994368 L18.1093413,15.6199945 L3.31751205,15.6199945 C5.87064494,4.73804287 16.8020197,-3.07760946 19.1155382,15.6199945 L19.3918751,17.7994368 C20.1703925,25.1788416 22.3581363,31.1480719 26.980583,31.3644004 C27.0072068,31.3644004 26.9383521,31.3545265 26.9126463,31.3500383" id="GREEN"/>                </g>            </g>        </g>    </g></svg>