<svg xmlns="http://www.w3.org/2000/svg" width="16" height="19">
    <path fill="#93C3E8" fill-rule="evenodd" d="M15.995 17.065c-.02 1.125-.76 1.909-1.839 1.914-2.05.01-4.101.003-6.151.003-2.008 0-4.017-.044-6.023.018-1.062.033-1.994-.927-1.983-2.076.014-1.463.267-2.811 1.206-3.921 1.12-1.324 2.755-2.06 4.569-1.519 1.49.444 2.934.492 4.419.009 1.165-.379 2.309-.194 3.36.441 1.642.991 2.4 2.525 2.442 4.472.005.219.004.439 0 .659zm-1.781-1.551c-.314-1.763-2.34-2.856-3.723-2.327a6.831 6.831 0 0 1-4.908.017c-1.155-.432-2.858.138-3.522 1.569-.351.753-.511 1.56-.29 2.446h12.454c.239-.635.084-1.174-.011-1.705zM8.005 10.66c-2.993-.003-5.223-2.673-5.072-5.338C2.811 2.484 5.154-.004 8.014-.002c2.852.003 5.095 2.486 5.102 5.334.006 2.67-2.124 5.331-5.111 5.328zm.037-8.899c-2.229-.025-3.457 1.993-3.481 3.518-.024 1.565 1.208 3.618 3.448 3.618 2.235.001 3.504-2.036 3.431-3.551.092-1.491-1.144-3.56-3.398-3.585z"/>
</svg>
